<svg width="14"
     height="14"
     viewBox="0 0 14 14"
     fill="none"
     xmlns="http://www.w3.org/2000/svg">
  <path fill-rule="evenodd"
        clip-rule="evenodd"
        d="M0.333374 6.99999C0.333374 6.53976 0.70647 6.16666 1.16671 6.16666H12.8334C13.2936 6.16666 13.6667 6.53976 13.6667 6.99999C13.6667 7.46023 13.2936 7.83333 12.8334 7.83333H1.16671C0.70647 7.83333 0.333374 7.46023 0.333374 6.99999Z"
        fill="#3A3A3A" />
  <path fill-rule="evenodd"
        clip-rule="evenodd"
        d="M7.5893 0.577406C7.91473 0.902843 7.91473 1.43048 7.5893 1.75592L2.34522 6.99999L7.5893 12.2441C7.91473 12.5695 7.91473 13.0971 7.5893 13.4226C7.26386 13.748 6.73622 13.748 6.41078 13.4226L0.577452 7.58925C0.252015 7.26381 0.252015 6.73618 0.577452 6.41074L6.41078 0.577406C6.73622 0.251969 7.26386 0.251969 7.5893 0.577406Z"
        fill="#3A3A3A" />
</svg>