<svg width="20"
     height="20"
     viewBox="0 0 20 20"
     fill="none"
     xmlns="http://www.w3.org/2000/svg">
  <path fill-rule="evenodd"
        clip-rule="evenodd"
        d="M4.33335 1.16665C4.49073 0.956808 4.73772 0.833313 5.00002 0.833313H15C15.2623 0.833313 15.5093 0.956808 15.6667 1.16665L18.1616 4.49317C18.2629 4.62527 18.3256 4.7886 18.3327 4.96623C18.3331 4.97746 18.3334 4.98871 18.3334 4.99998V16.6666C18.3334 17.3297 18.07 17.9656 17.6011 18.4344C17.1323 18.9033 16.4964 19.1666 15.8334 19.1666H4.16669C3.50365 19.1666 2.86776 18.9033 2.39892 18.4344C1.93008 17.9656 1.66669 17.3297 1.66669 16.6666V4.99998C1.66669 4.80934 1.7307 4.63365 1.83841 4.49323L4.33335 1.16665ZM3.33335 5.83331V16.6666C3.33335 16.8877 3.42115 17.0996 3.57743 17.2559C3.73371 17.4122 3.94567 17.5 4.16669 17.5H15.8334C16.0544 17.5 16.2663 17.4122 16.4226 17.2559C16.5789 17.0996 16.6667 16.8877 16.6667 16.6666V5.83331H3.33335ZM15.8334 4.16665H4.16669L5.41669 2.49998H14.5834L15.8334 4.16665ZM6.66669 7.49998C7.12692 7.49998 7.50002 7.87308 7.50002 8.33331C7.50002 8.99635 7.76341 9.63224 8.23225 10.1011C8.70109 10.5699 9.33698 10.8333 10 10.8333C10.6631 10.8333 11.2989 10.5699 11.7678 10.1011C12.2366 9.63224 12.5 8.99635 12.5 8.33331C12.5 7.87308 12.8731 7.49998 13.3334 7.49998C13.7936 7.49998 14.1667 7.87308 14.1667 8.33331C14.1667 9.43838 13.7277 10.4982 12.9463 11.2796C12.1649 12.061 11.1051 12.5 10 12.5C8.89495 12.5 7.83514 12.061 7.05374 11.2796C6.27234 10.4982 5.83335 9.43838 5.83335 8.33331C5.83335 7.87308 6.20645 7.49998 6.66669 7.49998Z"
        fill="" />
</svg>