<svg width="20"
     height="20"
     viewBox="0 0 20 20"
     fill="none"
     xmlns="http://www.w3.org/2000/svg">
  <path fill-rule="evenodd"
        clip-rule="evenodd"
        d="M5.87482 1.66669C4.43786 1.66669 3.05977 2.23751 2.04369 3.25359C1.02761 4.26967 0.456787 5.64776 0.456787 7.08472C0.456787 8.52167 1.02761 9.89976 2.04369 10.9158L9.41075 18.2829C9.45143 18.3236 9.49527 18.3592 9.54148 18.3897C9.86496 18.6033 10.3045 18.5677 10.5893 18.2829L17.9564 10.9158C18.9725 9.89976 19.5433 8.52167 19.5433 7.08472C19.5433 5.64776 18.9725 4.26967 17.9564 3.25359C16.9403 2.23751 15.5622 1.66669 14.1253 1.66669C12.6883 1.66669 11.3102 2.23751 10.2941 3.25359L10 3.54769L9.70594 3.25359C8.68986 2.23751 7.31177 1.66669 5.87482 1.66669ZM10.5893 5.31554C10.3045 5.60032 9.86496 5.63591 9.54148 5.42233C9.49527 5.39182 9.45143 5.35623 9.41075 5.31554L8.52737 4.43216C7.82387 3.72866 6.86972 3.33344 5.87482 3.33344C4.87992 3.33344 3.92576 3.72866 3.22226 4.43216C2.51876 5.13567 2.12354 6.08982 2.12354 7.08472C2.12354 8.07962 2.51876 9.03377 3.22226 9.73727L10 16.515L16.7778 9.73727C17.4813 9.03377 17.8765 8.07962 17.8765 7.08472C17.8765 6.08982 17.4813 5.13567 16.7778 4.43216C16.0743 3.72866 15.1202 3.33344 14.1253 3.33344C13.1304 3.33344 12.1762 3.72866 11.4727 4.43216L10.5893 5.31554Z"
        fill="#3A3A3A" />
</svg>