<svg width="20"
     height="20"
     viewBox="0 0 20 20"
     fill="none"
     xmlns="http://www.w3.org/2000/svg">
  <path fill-rule="evenodd"
        clip-rule="evenodd"
        d="M10.5116 1.00885C10.2107 0.7748 9.78927 0.7748 9.48834 1.00885L1.98834 6.84219C1.78535 7.00007 1.66663 7.24282 1.66663 7.49998V16.6666C1.66663 17.3297 1.93002 17.9656 2.39886 18.4344C2.8677 18.9033 3.50358 19.1666 4.16663 19.1666H15.8333C16.4963 19.1666 17.1322 18.9033 17.6011 18.4344C18.0699 17.9656 18.3333 17.3297 18.3333 16.6666V7.49998C18.3333 7.24282 18.2146 7.00007 18.0116 6.84219L10.5116 1.00885ZM13.3333 17.5H15.8333C16.0543 17.5 16.2663 17.4122 16.4225 17.2559C16.5788 17.0996 16.6666 16.8877 16.6666 16.6666V7.90755L9.99996 2.72236L3.33329 7.90755V16.6666C3.33329 16.8877 3.42109 17.0996 3.57737 17.2559C3.73365 17.4122 3.94561 17.5 4.16663 17.5H6.66663V9.99998C6.66663 9.53974 7.03972 9.16665 7.49996 9.16665H12.5C12.9602 9.16665 13.3333 9.53974 13.3333 9.99998V17.5ZM8.33329 17.5V10.8333H11.6666V17.5H8.33329Z"
        fill="" />
</svg>