<svg width="20"
     height="20"
     viewBox="0 0 20 20"
     fill="none"
     xmlns="http://www.w3.org/2000/svg">
  <path fill-rule="evenodd"
        clip-rule="evenodd"
        d="M2.08749 1.25C1.62725 1.25 1.25416 1.6231 1.25416 2.08333V10.4167C1.25416 10.6378 1.34209 10.85 1.49858 11.0063L8.65642 18.1558C8.88856 18.3881 9.16422 18.5725 9.46764 18.6982C9.77114 18.8241 10.0965 18.8888 10.425 18.8888C10.7535 18.8888 11.0788 18.8241 11.3823 18.6982C11.6857 18.5725 11.9616 18.3879 12.1937 18.1556L18.1684 12.1809L18.1702 12.1792C18.6358 11.7108 18.8971 11.0771 18.8971 10.4167C18.8971 9.7562 18.6358 9.12257 18.1702 8.65416L11.0101 1.49408C10.8538 1.3378 10.6418 1.25 10.4208 1.25H2.08749ZM16.9889 11.0034L16.9882 11.0042L11.0146 16.9777C10.9372 17.0552 10.8453 17.1167 10.7441 17.1586C10.6429 17.2006 10.5345 17.2221 10.425 17.2221C10.3155 17.2221 10.207 17.2006 10.1059 17.1586C10.0047 17.1167 9.9128 17.0552 9.83541 16.9777L9.83474 16.9771L2.92082 10.0712V2.91667H10.0756L16.9882 9.82917L16.9889 9.82994C17.1436 9.986 17.2305 10.1969 17.2305 10.4167C17.2305 10.6365 17.1436 10.8473 16.9889 11.0034ZM6.25416 5.41667C5.79392 5.41667 5.42082 5.78976 5.42082 6.25C5.42082 6.71024 5.79392 7.08333 6.25416 7.08333H6.26249C6.72273 7.08333 7.09582 6.71024 7.09582 6.25C7.09582 5.78976 6.72273 5.41667 6.26249 5.41667H6.25416Z"
        fill="" />
</svg>