<svg width="40"
     height="40"
     viewBox="0 0 40 40"
     fill="none"
     xmlns="http://www.w3.org/2000/svg">
  <rect width="40"
        height="40"
        rx="20"
        fill="#FFE202" />
  <path fill-rule="evenodd"
        clip-rule="evenodd"
        d="M23.4633 24.5239C22.3085 25.4476 20.8438 26 19.25 26C15.5221 26 12.5 22.9779 12.5 19.25C12.5 15.5221 15.5221 12.5 19.25 12.5C22.9779 12.5 26 15.5221 26 19.25C26 20.8438 25.4476 22.3085 24.5239 23.4633L27.2803 26.2197C27.5732 26.5126 27.5732 26.9874 27.2803 27.2803C26.9874 27.5732 26.5126 27.5732 26.2197 27.2803L23.4633 24.5239ZM14 19.25C14 16.3505 16.3505 14 19.25 14C22.1495 14 24.5 16.3505 24.5 19.25C24.5 20.6645 23.9406 21.9483 23.0311 22.8923C23.0054 22.912 22.9807 22.9337 22.9572 22.9572C22.9337 22.9807 22.912 23.0054 22.8923 23.0311C21.9483 23.9406 20.6645 24.5 19.25 24.5C16.3505 24.5 14 22.1495 14 19.25Z"
        fill="#3A3A3A" />
</svg>